<?xml version="1.0" encoding="UTF-8"?>
<svg width="51px" height="51px" viewBox="0 0 51 51" version="1.1" xmlns="http://www.w3.org/2000/svg" xmlns:xlink="http://www.w3.org/1999/xlink">
    <title>polygon</title>
    <g id="英文" stroke="none" stroke-width="1" fill="none" fill-rule="evenodd">
        <g id="展开" transform="translate(-375.000000, -713.000000)" fill-rule="nonzero">
            <g id="1" transform="translate(196.000000, 422.000000)">
                <g id="polygon" transform="translate(180.000000, 292.000000)">
                    <rect id="矩形" stroke="#FFFFFF" stroke-width="1.5" fill-opacity="0.5" fill="#1C1C1C" x="0" y="0" width="48.5" height="48.5" rx="18"></rect>
                    <path d="M32.479765,18.8078635 C31.8949086,18.4755193 31.1429504,18.4755193 30.4745431,18.8078635 L25.7956919,21.5497033 L22.6207572,23.2945104 L18.0254569,26.0363501 C17.4406005,26.3686944 16.6886423,26.3686944 16.020235,26.0363501 L12.4275457,23.8761128 C11.8426893,23.5437685 11.4249347,22.8790801 11.4249347,22.1313056 L11.4249347,17.977003 C11.4249347,17.3123145 11.7591384,16.6476261 12.4275457,16.2321958 L16.020235,14.1550445 C16.6050914,13.8227003 17.3570496,13.8227003 18.0254569,14.1550445 L21.6181462,16.3152819 C22.2030026,16.6476261 22.6207572,17.3123145 22.6207572,18.060089 L22.6207572,20.8019288 L25.7956919,18.9740356 L25.7956919,16.1491098 C25.7956919,15.4844214 25.4614883,14.8197329 24.7930809,14.4043027 L18.1090078,10.4992582 C17.5241514,10.1669139 16.7721932,10.1669139 16.1037859,10.4992582 L9.252611,14.4873887 C8.58420366,14.8197329 8.25,15.4844214 8.25,16.1491098 L8.25,23.9591988 C8.25,24.6238872 8.58420366,25.2885757 9.252611,25.7040059 L16.020235,29.6090504 C16.6050914,29.9413947 17.3570496,29.9413947 18.0254569,29.6090504 L22.6207572,26.9502967 L25.7956919,25.1224036 L30.3909922,22.4636499 C30.9758486,22.1313056 31.7278068,22.1313056 32.3962141,22.4636499 L35.9889034,24.5408012 C36.5737598,24.8731454 36.9915144,25.5378338 36.9915144,26.2856083 L36.9915144,30.439911 C36.9915144,31.1045994 36.6573107,31.7692878 35.9889034,32.1847181 L32.479765,34.2618694 C31.8949086,34.5942136 31.1429504,34.5942136 30.4745431,34.2618694 L26.8818538,32.1847181 C26.2969974,31.8523739 25.8792428,31.1876855 25.8792428,30.439911 L25.8792428,27.7811573 L22.7043081,29.6090504 L22.7043081,32.3508902 C22.7043081,33.0155786 23.0385117,33.6802671 23.7069191,34.0956973 L30.4745431,38.0007418 C31.0593995,38.3330861 31.8113577,38.3330861 32.479765,38.0007418 L39.247389,34.0956973 C39.8322454,33.7633531 40.25,33.0986647 40.25,32.3508902 L40.25,24.4577151 C40.25,23.7930267 39.9157963,23.1283383 39.247389,22.712908 L32.479765,18.8078635 Z" id="路径" fill="#4E4E54"></path>
                </g>
            </g>
        </g>
    </g>
</svg>